<svg version="1.1" viewBox="0.0 0.0 600.0 371.0" fill="none" stroke="none" stroke-linecap="square" stroke-miterlimit="10" width="600" height="371" xmlns:xlink="http://www.w3.org/1999/xlink" xmlns="http://www.w3.org/2000/svg"><path fill="#ffffff" d="M0 0L600.0 0L600.0 371.0L0 371.0L0 0Z" fill-rule="nonzero"/><path fill="#ffffff" d="M18.55 18.55L581.45 18.55L581.45 352.44998L18.55 352.44998L18.55 18.55Z" fill-rule="nonzero"/><path stroke="#000000" stroke-width="5.0" stroke-linecap="butt" d="M300.0 62.0C407.0 248.0 193.0 248.0 300.0 62.0Z" fill-rule="nonzero"/><path stroke="#000000" stroke-width="4.0" stroke-linecap="butt" d="M300.0 62.0C407.0 248.0 193.0 248.0 300.0 62.0Z" fill-rule="nonzero"/><path stroke="#000000" stroke-width="3.0" stroke-linecap="butt" d="M300.0 42.0C425.0 258.0 175.0 258.0 300.0 42.0Z" fill-rule="nonzero"/><path stroke="#000000" stroke-width="2.0" stroke-linecap="butt" d="M300.0 62.0C407.0 248.0 193.0 248.0 300.0 62.0Z" fill-rule="nonzero"/><path stroke="#000000" stroke-width="1.0" stroke-linecap="butt" d="M300.0 124.0C354.0 217.0 246.0 217.0 300.0 124.0Z" fill-rule="nonzero"/></svg>