<svg version="1.1" viewBox="0.0 0.0 600.0 371.0" fill="none" stroke="none" stroke-linecap="square" stroke-miterlimit="10" width="600" height="371" xmlns:xlink="http://www.w3.org/1999/xlink" xmlns="http://www.w3.org/2000/svg"><path fill="#ffffff" d="M0 0L600.0 0L600.0 371.0L0 371.0L0 0Z" fill-rule="nonzero"/><path fill="#ffffff" d="M0 0.5L600.0 0.5L600.0 369.5L0 369.5L0 0.5Z" fill-rule="nonzero"/><path stroke="#000000" stroke-width="5.0" stroke-linecap="butt" d="M300.0 76.0L339.0 26.0L376.0 40.0L397.0 76.0L450.0 81.0L437.0 133.0L463.0 165.0L445.0 203.0L454.0 243.0L435.0 278.0L397.0 294.0L376.0 330.0L339.0 344.0L300.0 349.0L261.0 344.0L232.0 314.0L191.0 308.0L180.0 268.0L146.0 243.0L137.0 205.0L173.0 170.0L163.0 133.0L180.0 102.0L203.0 76.0L232.0 56.0L261.0 26.0Z" fill-rule="nonzero"/><path stroke="#000000" stroke-width="4.0" stroke-linecap="butt" d="M300.0 39.0L335.0 43.0L368.0 56.0L385.0 89.0L420.0 102.0L402.0 146.0L445.0 167.0L427.0 200.0L402.0 224.0L420.0 268.0L385.0 281.0L368.0 314.0L331.0 309.0L300.0 313.0L269.0 309.0L241.0 298.0L203.0 294.0L180.0 268.0L181.0 230.0L173.0 200.0L155.0 167.0L163.0 133.0L180.0 102.0L203.0 76.0L232.0 56.0L265.0 43.0Z" fill-rule="nonzero"/><path stroke="#000000" stroke-width="3.0" stroke-linecap="butt" d="M300.0 57.0L331.0 61.0L359.0 72.0L385.0 89.0L405.0 112.0L419.0 140.0L445.0 167.0L445.0 203.0L454.0 243.0L420.0 268.0L397.0 294.0L368.0 314.0L335.0 327.0L300.0 295.0L269.0 309.0L241.0 298.0L215.0 281.0L180.0 268.0L163.0 237.0L173.0 200.0L155.0 167.0L181.0 140.0L180.0 102.0L203.0 76.0L241.0 72.0L261.0 26.0Z" fill-rule="nonzero"/><path stroke="#000000" stroke-width="2.0" stroke-linecap="butt" d="M300.0 76.0L331.0 61.0L359.0 72.0L385.0 89.0L390.0 123.0L419.0 140.0L445.0 167.0L427.0 200.0L437.0 237.0L405.0 258.0L397.0 294.0L368.0 314.0L331.0 309.0L300.0 313.0L269.0 309.0L241.0 298.0L227.0 267.0L180.0 268.0L163.0 237.0L209.0 196.0L155.0 167.0L198.0 146.0L180.0 102.0L203.0 76.0L232.0 56.0L265.0 43.0Z" fill-rule="nonzero"/><path stroke="#000000" stroke-width="1.0" stroke-linecap="butt" d="M300.0 130.0L315.0 123.0L330.0 128.0L342.0 137.0L345.0 154.0L360.0 162.0L372.0 176.0L363.0 193.0L368.0 211.0L353.0 221.0L348.0 240.0L334.0 250.0L315.0 247.0L300.0 249.0L285.0 247.0L270.0 242.0L264.0 226.0L240.0 226.0L232.0 211.0L255.0 190.0L228.0 176.0L249.0 166.0L240.0 144.0L252.0 130.0L266.0 120.0L283.0 114.0Z" fill-rule="nonzero"/></svg>