<svg version="1.1" viewBox="0.0 0.0 600.0 371.0" fill="none" stroke="none" stroke-linecap="square" stroke-miterlimit="10" width="600" height="371" xmlns:xlink="http://www.w3.org/1999/xlink" xmlns="http://www.w3.org/2000/svg"><path fill="#ffffff" d="M0 0L600.0 0L600.0 371.0L0 371.0L0 0Z" fill-rule="nonzero"/><path fill="#ffffff" d="M18.55 18.55L581.45 18.55L581.45 352.44998L18.55 352.44998L18.55 18.55Z" fill-rule="nonzero"/><path stroke="#000000" stroke-width="5.0" stroke-linecap="butt" d="M300.0 38.0L329.0 40.0L357.0 49.0L382.0 63.0L405.0 81.0L423.0 104.0L422.0 136.0L446.0 157.0L432.0 186.0L446.0 215.0L437.0 243.0L423.0 268.0L405.0 291.0L382.0 309.0L357.0 323.0L329.0 332.0L300.0 334.0L271.0 332.0L243.0 323.0L218.0 309.0L195.0 291.0L177.0 268.0L163.0 243.0L154.0 215.0L152.0 186.0L154.0 157.0L163.0 129.0L177.0 104.0L195.0 81.0L218.0 63.0L243.0 49.0L268.0 24.0Z" fill-rule="nonzero"/><path stroke="#000000" stroke-width="4.0" stroke-linecap="butt" d="M300.0 21.0L329.0 40.0L350.0 64.0L382.0 63.0L405.0 81.0L423.0 104.0L437.0 129.0L429.0 160.0L448.0 186.0L446.0 215.0L437.0 243.0L423.0 268.0L405.0 291.0L382.0 309.0L357.0 323.0L329.0 332.0L300.0 318.0L274.0 315.0L243.0 323.0L227.0 296.0L207.0 279.0L177.0 268.0L163.0 243.0L154.0 215.0L185.0 186.0L171.0 160.0L163.0 129.0L177.0 104.0L207.0 93.0L236.0 90.0L250.0 64.0L271.0 40.0Z" fill-rule="nonzero"/><path stroke="#000000" stroke-width="3.0" stroke-linecap="butt" d="M300.0 54.0L329.0 40.0L357.0 49.0L382.0 63.0L393.0 93.0L423.0 104.0L437.0 129.0L429.0 160.0L448.0 186.0L446.0 215.0L437.0 243.0L423.0 268.0L405.0 291.0L382.0 309.0L357.0 323.0L329.0 332.0L300.0 318.0L271.0 332.0L243.0 323.0L218.0 309.0L207.0 279.0L177.0 268.0L163.0 243.0L171.0 212.0L185.0 186.0L171.0 160.0L163.0 129.0L190.0 113.0L207.0 93.0L218.0 63.0L250.0 64.0L271.0 40.0Z" fill-rule="nonzero"/><path stroke="#000000" stroke-width="2.0" stroke-linecap="butt" d="M300.0 54.0L329.0 40.0L350.0 64.0L373.0 76.0L382.0 104.0L423.0 104.0L422.0 136.0L429.0 160.0L448.0 186.0L446.0 215.0L437.0 243.0L423.0 268.0L405.0 291.0L382.0 309.0L350.0 308.0L329.0 332.0L300.0 318.0L271.0 332.0L243.0 323.0L227.0 296.0L207.0 279.0L177.0 268.0L163.0 243.0L154.0 215.0L168.0 186.0L171.0 160.0L178.0 136.0L177.0 104.0L207.0 93.0L218.0 63.0L250.0 64.0L271.0 40.0Z" fill-rule="nonzero"/><path stroke="#000000" stroke-width="1.0" stroke-linecap="butt" d="M300.0 120.0L314.0 113.0L325.0 125.0L337.0 131.0L341.0 145.0L362.0 145.0L361.0 161.0L365.0 173.0L374.0 186.0L373.0 200.0L369.0 214.0L362.0 227.0L352.0 238.0L341.0 248.0L325.0 247.0L314.0 259.0L300.0 252.0L286.0 259.0L272.0 255.0L263.0 241.0L253.0 233.0L238.0 227.0L231.0 214.0L227.0 200.0L234.0 186.0L235.0 173.0L239.0 161.0L238.0 145.0L253.0 139.0L259.0 124.0L275.0 125.0L286.0 113.0Z" fill-rule="nonzero"/></svg>