<svg version="1.1" viewBox="0.0 0.0 600.0 371.0" fill="none" stroke="none" stroke-linecap="square" stroke-miterlimit="10" width="600" height="371" xmlns:xlink="http://www.w3.org/1999/xlink" xmlns="http://www.w3.org/2000/svg"><path fill="#ffffff" d="M0 0L600.0 0L600.0 371.0L0 371.0L0 0Z" fill-rule="nonzero"/><path fill="#ffffff" d="M18.55 18.55L581.45 18.55L581.45 352.44998L18.55 352.44998L18.55 18.55Z" fill-rule="nonzero"/><path stroke="#000000" stroke-width="5.0" stroke-linecap="butt" d="M300.0 21.0L389.0 47.0L450.0 117.0L447.0 207.0L425.0 294.0L342.0 328.0L258.0 328.0L175.0 294.0L153.0 207.0L165.0 124.0L229.0 75.0Z" fill-rule="nonzero"/><path stroke="#000000" stroke-width="4.0" stroke-linecap="butt" d="M300.0 54.0L380.0 61.0L420.0 131.0L431.0 205.0L387.0 262.0L337.0 313.0L258.0 328.0L200.0 272.0L169.0 205.0L225.0 152.0L238.0 89.0Z" fill-rule="nonzero"/><path stroke="#000000" stroke-width="3.0" stroke-linecap="butt" d="M300.0 38.0L380.0 61.0L420.0 131.0L431.0 205.0L400.0 272.0L337.0 313.0L258.0 328.0L200.0 272.0L169.0 205.0L180.0 131.0L229.0 75.0Z" fill-rule="nonzero"/><path stroke="#000000" stroke-width="2.0" stroke-linecap="butt" d="M300.0 71.0L362.0 89.0L405.0 138.0L431.0 205.0L387.0 262.0L342.0 328.0L263.0 313.0L200.0 272.0L235.0 195.0L195.0 138.0L238.0 89.0Z" fill-rule="nonzero"/><path stroke="#000000" stroke-width="1.0" stroke-linecap="butt" d="M300.0 128.0L331.0 137.0L353.0 162.0L365.0 195.0L344.0 224.0L321.0 257.0L281.0 249.0L250.0 229.0L267.0 191.0L247.0 162.0L269.0 137.0Z" fill-rule="nonzero"/></svg>