<svg version="1.1" viewBox="0.0 0.0 600.0 371.0" fill="none" stroke="none" stroke-linecap="square" stroke-miterlimit="10" width="600" height="371" xmlns:xlink="http://www.w3.org/1999/xlink" xmlns="http://www.w3.org/2000/svg"><path fill="#ffffff" d="M0 0L600.0 0L600.0 371.0L0 371.0L0 0Z" fill-rule="nonzero"/><path fill="#ffffff" d="M18.55 18.55L581.45 18.55L581.45 352.44998L18.55 352.44998L18.55 18.55Z" fill-rule="nonzero"/><path stroke="#000000" stroke-width="5.0" stroke-linecap="butt" d="M300.0 21.0L377.0 40.0L436.0 92.0L464.0 166.0L454.0 244.0L388.0 285.0L339.0 346.0L268.0 314.0L202.0 297.0L177.0 233.0L169.0 170.0L205.0 120.0L231.0 55.0Z" fill-rule="nonzero"/><path stroke="#000000" stroke-width="4.0" stroke-linecap="butt" d="M300.0 21.0L346.0 98.0L395.0 120.0L431.0 170.0L423.0 233.0L388.0 285.0L336.0 330.0L268.0 314.0L212.0 285.0L177.0 233.0L169.0 170.0L178.0 102.0L239.0 69.0Z" fill-rule="nonzero"/><path stroke="#000000" stroke-width="3.0" stroke-linecap="butt" d="M300.0 21.0L369.0 55.0L436.0 92.0L431.0 170.0L423.0 233.0L388.0 285.0L332.0 314.0L268.0 314.0L212.0 285.0L177.0 233.0L169.0 170.0L231.0 55.0Z" fill-rule="nonzero"/><path stroke="#000000" stroke-width="2.0" stroke-linecap="butt" d="M300.0 54.0L361.0 69.0L409.0 111.0L431.0 170.0L423.0 233.0L377.0 272.0L332.0 314.0L268.0 314.0L212.0 285.0L177.0 233.0L169.0 170.0L191.0 111.0L231.0 55.0Z" fill-rule="nonzero"/><path stroke="#000000" stroke-width="1.0" stroke-linecap="butt" d="M300.0 120.0L331.0 128.0L354.0 149.0L365.0 178.0L362.0 209.0L338.0 229.0L316.0 250.0L284.0 250.0L256.0 235.0L238.0 209.0L235.0 178.0L246.0 149.0L266.0 120.0Z" fill-rule="nonzero"/></svg>