<svg version="1.1" viewBox="0.0 0.0 600.0 371.0" fill="none" stroke="none" stroke-linecap="square" stroke-miterlimit="10" width="600" height="371" xmlns:xlink="http://www.w3.org/1999/xlink" xmlns="http://www.w3.org/2000/svg"><path fill="#ffffff" d="M0 0L600.0 0L600.0 371.0L0 371.0L0 0Z" fill-rule="nonzero"/><path fill="#ffffff" d="M18.55 18.55L581.45 18.55L581.45 352.44998L18.55 352.44998L18.55 18.55Z" fill-rule="nonzero"/><path stroke="#000000" stroke-width="5.0" stroke-linecap="butt" d="M300.0 87.0L326.0 40.0L356.0 31.0L382.0 43.0L406.0 60.0L426.0 80.0L414.0 120.0L455.0 130.0L462.0 157.0L465.0 186.0L462.0 215.0L455.0 242.0L443.0 268.0L426.0 292.0L406.0 312.0L382.0 329.0L356.0 341.0L329.0 348.0L300.0 351.0L271.0 348.0L249.0 326.0L226.0 315.0L194.0 312.0L186.0 281.0L171.0 260.0L145.0 242.0L138.0 215.0L135.0 186.0L186.0 166.0L145.0 130.0L157.0 104.0L186.0 91.0L205.0 72.0L259.0 115.0L244.0 31.0L277.0 56.0Z" fill-rule="nonzero"/><path stroke="#000000" stroke-width="4.0" stroke-linecap="butt" d="M300.0 54.0L323.0 56.0L351.0 46.0L382.0 43.0L429.0 112.0L409.0 147.0L414.0 166.0L432.0 186.0L462.0 215.0L424.0 231.0L400.0 244.0L426.0 292.0L385.0 287.0L358.0 286.0L351.0 326.0L323.0 316.0L300.0 285.0L280.0 300.0L266.0 279.0L251.0 272.0L236.0 262.0L174.0 292.0L257.0 211.0L191.0 225.0L186.0 206.0L234.0 186.0L203.0 169.0L186.0 120.0L224.0 122.0L205.0 72.0L242.0 86.0L255.0 62.0L280.0 72.0Z" fill-rule="nonzero"/><path stroke="#000000" stroke-width="3.0" stroke-linecap="butt" d="M300.0 71.0L320.0 72.0L351.0 46.0L374.0 57.0L443.0 104.0L440.0 135.0L430.0 163.0L432.0 186.0L446.0 212.0L440.0 237.0L386.0 235.0L414.0 281.0L395.0 300.0L349.0 272.0L339.0 295.0L323.0 316.0L300.0 268.0L277.0 316.0L266.0 279.0L251.0 272.0L247.0 249.0L174.0 292.0L243.0 219.0L191.0 225.0L219.0 200.0L234.0 186.0L203.0 169.0L186.0 120.0L224.0 122.0L215.0 85.0L251.0 100.0L255.0 62.0L283.0 89.0Z" fill-rule="nonzero"/><path stroke="#000000" stroke-width="2.0" stroke-linecap="butt" d="M300.0 120.0L314.0 105.0L334.0 93.0L358.0 86.0L329.0 170.0L393.0 152.0L414.0 166.0L366.0 186.0L414.0 206.0L424.0 231.0L400.0 244.0L414.0 281.0L311.0 199.0L349.0 272.0L334.0 279.0L317.0 283.0L300.0 268.0L286.0 267.0L272.0 264.0L259.0 257.0L268.0 224.0L287.0 197.0L214.0 235.0L207.0 220.0L219.0 200.0L234.0 186.0L203.0 169.0L229.0 145.0L249.0 144.0L268.0 148.0L234.0 72.0L261.0 77.0L283.0 89.0Z" fill-rule="nonzero"/><path stroke="#000000" stroke-width="1.0" stroke-linecap="butt" d="M300.0 153.0L307.0 145.0L317.0 139.0L329.0 136.0L300.0 186.0L300.0 186.0L314.0 178.0L347.0 169.0L357.0 176.0L333.0 186.0L357.0 196.0L362.0 209.0L350.0 215.0L357.0 234.0L305.0 192.0L325.0 229.0L317.0 233.0L309.0 235.0L300.0 227.0L293.0 227.0L286.0 225.0L279.0 222.0L284.0 205.0L294.0 191.0L257.0 211.0L253.0 203.0L259.0 193.0L267.0 186.0L251.0 177.0L300.0 186.0L264.0 165.0L275.0 165.0L284.0 167.0L267.0 129.0L280.0 132.0L291.0 137.0Z" fill-rule="nonzero"/></svg>